<?xml version="1.0" standalone="no"?>
<!DOCTYPE svg PUBLIC "-//W3C//DTD SVG 20010904//EN"
 "http://www.w3.org/TR/2001/REC-SVG-20010904/DTD/svg10.dtd">
<svg version="1.0" xmlns="http://www.w3.org/2000/svg"
 width="450.000000pt" height="450.000000pt" viewBox="0 0 450.000000 450.000000"
 preserveAspectRatio="xMidYMid meet">

<g transform="translate(0.000000,450.000000) scale(0.100000,-0.100000)"
fill="#000000" stroke="none">
<path d="M2290 4493 c-106 -7 -205 -24 -228 -39 -23 -15 -24 -21 -19 -78 3
-33 13 -103 22 -154 l18 -92 36 6 c75 12 72 9 65 78 -6 60 -5 63 17 69 13 4
43 7 67 7 41 0 42 -1 42 -34 0 -18 3 -48 6 -65 6 -30 8 -31 62 -31 l55 0 -5
146 c-6 183 -15 195 -138 187z m10 -112 c0 -15 -10 -20 -60 -25 -64 -7 -80 -3
-80 19 0 17 20 22 88 24 45 1 52 -2 52 -18z"/>
<path d="M2495 4475 c-24 -23 -25 -29 -25 -164 l0 -139 53 -4 c28 -3 55 -3 60
-1 4 2 7 33 7 69 0 72 -3 70 84 58 l47 -7 -2 -66 -3 -66 55 -7 c30 -3 54 -6
55 -5 1 1 11 65 22 141 28 187 26 189 -130 206 -156 16 -195 14 -223 -15z
m244 -81 c2 -2 1 -10 -2 -19 -5 -11 -22 -15 -72 -15 -63 0 -65 1 -65 26 l0 26
68 -7 c37 -4 69 -9 71 -11z"/>
<path d="M2940 4432 c-18 -14 -26 -40 -41 -128 -10 -60 -21 -123 -24 -141 -5
-31 -5 -31 42 -38 27 -3 52 -6 58 -6 5 0 15 26 22 57 8 32 15 60 17 62 9 8
118 -22 123 -34 2 -7 -3 -36 -11 -65 -9 -29 -16 -54 -16 -55 0 -9 103 -35 110
-28 4 5 26 66 49 135 59 177 55 182 -163 235 -121 29 -137 29 -166 6z m165
-98 c42 -11 65 -22 65 -31 0 -22 -23 -25 -81 -10 -43 10 -55 18 -57 35 -4 26
-7 26 73 6z"/>
<path d="M1785 4410 c-117 -31 -182 -52 -187 -60 -3 -6 89 -280 101 -299 7
-11 19 -10 72 7 35 12 100 30 143 41 44 11 88 29 99 40 18 18 19 24 8 77 -6
32 -18 62 -27 67 -12 7 -12 12 -4 22 15 18 3 94 -18 118 -21 24 -58 21 -187
-13z m90 -95 c0 -14 -15 -22 -62 -35 -61 -17 -63 -17 -69 2 -7 24 -10 22 56
41 64 18 75 17 75 -8z m29 -101 c8 -22 7 -23 -60 -40 -47 -13 -58 -13 -65 -2
-15 22 -10 27 34 38 23 6 47 13 52 15 21 8 33 4 39 -11z"/>
<path d="M3321 4193 c-28 -82 -51 -151 -51 -155 0 -4 15 -14 33 -22 73 -30 73
-30 92 21 10 27 21 52 25 56 7 8 120 -37 120 -48 0 -3 -12 -28 -26 -56 -14
-28 -24 -52 -22 -54 10 -8 89 -45 97 -45 6 0 24 27 41 60 23 47 28 65 20 79
-8 16 -5 20 15 25 17 4 33 21 47 51 30 61 18 82 -70 128 -67 35 -241 107 -260
107 -5 0 -32 -66 -61 -147z m217 -8 c53 -25 58 -30 44 -53 -7 -10 -22 -7 -68
14 -70 31 -66 27 -58 48 8 21 19 20 82 -9z"/>
<path d="M1285 4223 c-27 -14 -52 -27 -53 -28 -2 -2 30 -69 72 -149 l77 -145
47 21 c26 11 49 22 51 24 4 4 -133 303 -139 303 -3 0 -27 -12 -55 -26z"/>
<path d="M1135 4145 c-65 -37 -70 -45 -80 -131 -8 -59 -20 -94 -33 -94 -4 0
-20 20 -35 45 -16 25 -33 47 -38 51 -11 6 -99 -53 -99 -67 0 -11 188 -259 196
-259 3 0 22 12 42 27 20 15 39 28 41 30 2 1 -13 28 -33 58 -46 70 -35 76 72
43 l77 -24 57 30 c32 17 58 34 58 37 0 3 -46 21 -102 39 -57 18 -104 34 -105
35 -1 0 8 48 21 105 13 58 23 106 22 107 0 1 -28 -14 -61 -32z"/>
<path d="M2079 3845 c-129 -21 -248 -53 -309 -86 -125 -66 -243 -184 -301
-302 -17 -34 -80 -131 -141 -214 -60 -84 -121 -179 -136 -210 -26 -56 -27 -65
-27 -220 0 -159 0 -162 -22 -172 -39 -18 -63 -69 -63 -134 0 -99 47 -168 104
-153 l24 6 6 -118 c12 -204 37 -455 51 -526 37 -176 158 -326 326 -403 76 -35
80 -59 12 -68 -281 -36 -426 -155 -519 -427 -30 -88 -41 -180 -54 -453 -6
-116 -13 -233 -16 -261 l-6 -51 88 -7 c63 -4 1453 -46 1559 -46 6 0 10 52 11
133 3 417 244 1000 707 1712 486 748 687 1075 687 1121 0 6 -11 21 -25 34 -40
37 -33 50 28 50 58 0 111 26 122 59 3 12 14 21 24 21 24 0 134 72 155 101 20
30 20 43 -1 64 -9 9 -17 30 -18 46 -2 17 -10 38 -19 48 -9 10 -16 25 -16 35 0
33 -20 54 -67 72 -27 10 -59 31 -72 47 -31 37 -66 32 -128 -19 -39 -32 -47
-35 -69 -25 -34 15 -41 14 -64 -9 -22 -22 -27 -94 -11 -163 8 -35 6 -42 -22
-75 -17 -20 -33 -39 -34 -41 -2 -3 -17 8 -33 24 -19 18 -34 25 -39 19 -36 -38
-296 -414 -389 -564 l-22 -35 7 60 c13 102 9 365 -6 415 -10 35 -37 69 -126
160 -62 63 -128 140 -148 171 -47 74 -116 133 -183 159 -89 33 -130 57 -155
91 -55 73 -115 127 -154 138 -55 15 -409 12 -516 -4z m528 -39 c30 -15 93 -80
93 -95 0 -25 78 -81 155 -111 98 -38 150 -79 196 -152 17 -29 85 -107 149
-174 138 -141 140 -148 139 -347 -1 -184 -6 -204 -55 -233 l-42 -25 -11 66
c-15 82 -37 140 -90 230 l-41 70 38 11 37 12 -41 1 c-45 1 -40 -4 -81 98 -2 6
4 13 14 16 14 4 14 5 -4 6 -17 1 -30 15 -47 50 l-25 49 27 7 c31 8 52 23 52
38 0 5 -8 3 -17 -6 -10 -8 -29 -18 -43 -22 -21 -5 -30 1 -63 45 -20 27 -33 50
-27 50 13 0 50 37 50 50 0 5 -11 -2 -25 -15 -13 -14 -28 -25 -34 -25 -13 0
-116 71 -114 79 1 3 5 15 9 26 6 17 4 17 -12 -4 -18 -21 -23 -22 -59 -12 -22
6 -53 11 -69 11 -23 0 -27 3 -21 18 42 101 48 169 17 194 -13 11 -14 10 -4 -9
18 -33 14 -89 -9 -144 l-21 -49 -59 0 -58 0 15 35 c15 36 19 121 6 129 -4 2
-6 -14 -4 -36 5 -50 -24 -117 -56 -129 -13 -5 -41 -9 -64 -9 -33 0 -39 3 -34
16 24 64 18 115 -20 159 l-26 30 23 -34 c26 -39 31 -111 10 -148 -10 -20 -20
-23 -66 -23 l-55 0 0 48 c0 26 -4 52 -8 59 -4 6 -7 -15 -7 -47 0 -32 -2 -60
-5 -63 -3 -2 -39 -7 -80 -11 l-75 -6 3 55 c4 52 2 57 -31 90 -19 19 -41 35
-48 35 -8 0 0 -9 17 -19 39 -24 57 -73 48 -129 -6 -38 -10 -42 -52 -56 -25 -9
-47 -16 -49 -16 -2 0 -3 14 -3 31 0 36 -36 105 -59 114 -10 4 -8 -1 6 -17 27
-28 43 -70 43 -108 0 -22 -7 -33 -30 -45 -41 -21 -42 -20 -68 29 -13 24 -36
55 -50 68 l-27 23 21 -25 c26 -29 64 -100 64 -116 0 -7 -14 -17 -32 -23 -36
-13 -60 -1 -111 53 -22 23 -26 25 -18 9 6 -12 27 -35 46 -50 l34 -27 -35 -23
c-31 -22 -36 -23 -63 -9 -16 9 -44 28 -62 43 l-34 27 25 -28 c14 -15 37 -35
53 -44 15 -9 27 -19 27 -22 -1 -3 -15 -22 -33 -43 -31 -36 -35 -37 -62 -27
-17 6 -41 21 -55 33 -20 18 -19 16 4 -10 15 -17 39 -34 52 -37 l24 -6 -21 -43
c-12 -23 -23 -43 -24 -45 -2 -2 -20 4 -40 12 -53 23 -57 19 -8 -7 l41 -22 -28
-62 c-25 -55 -32 -63 -57 -64 l-28 -1 27 -7 27 -6 -22 -40 c-21 -37 -27 -40
-63 -39 l-39 2 31 -10 31 -10 -23 -57 c-13 -31 -28 -87 -35 -126 -7 -38 -13
-72 -15 -74 -4 -4 -137 39 -147 48 -16 15 -28 183 -17 258 13 93 35 136 157
304 54 74 118 173 143 220 76 142 234 282 363 320 79 24 230 51 322 59 151 13
386 5 422 -14z m1547 -298 c24 -34 20 -97 -11 -158 -32 -62 -69 -94 -104 -88
-23 4 -21 7 30 57 l54 52 -47 48 -47 48 38 31 c45 37 67 40 87 10z m-1469 -49
c161 -30 245 -119 359 -380 25 -58 62 -133 81 -165 41 -67 61 -129 71 -213 l6
-58 -53 -30 -54 -31 -7 57 c-15 112 -30 126 -163 157 -64 15 -121 19 -280 19
-244 0 -244 0 -269 -102 l-17 -68 -42 3 c-40 3 -44 7 -65 50 -12 26 -33 55
-47 65 -73 52 -520 82 -630 41 -64 -23 -117 -98 -131 -182 -5 -32 -10 -39 -25
-35 -14 4 -17 12 -13 37 14 84 37 165 60 206 13 25 42 83 65 130 150 314 136
298 327 390 81 39 176 78 212 86 117 28 512 42 615 23z m1329 -36 l57 -46 -39
-41 c-48 -50 -64 -79 -55 -102 5 -14 16 -16 72 -11 l66 5 -41 -18 c-41 -18
-65 -40 -45 -40 5 0 13 5 16 10 3 6 21 10 38 10 27 -1 35 -7 49 -38 15 -31 16
-39 4 -51 -16 -15 -75 -19 -118 -8 -21 6 -28 3 -33 -12 -5 -16 -15 -9 -64 42
l-59 61 44 49 c24 27 42 52 39 56 -9 16 -25 144 -20 162 9 29 27 23 89 -28z
m262 1 c7 -27 -15 -72 -57 -113 -65 -65 -69 -59 -31 54 34 101 36 103 59 92
13 -6 26 -20 29 -33z m20 -121 c-16 -32 -76 -77 -116 -88 -24 -6 -24 -5 5 16
17 12 50 44 75 70 47 49 61 50 36 2z m42 -45 c-2 -7 -32 -32 -67 -55 -60 -41
-101 -54 -101 -33 0 6 7 10 15 10 25 0 88 35 114 64 26 28 45 34 39 14z m-318
-305 c1 -29 -202 -362 -515 -844 -109 -167 -236 -364 -282 -438 -364 -580
-580 -1133 -598 -1528 l-5 -105 -122 1 c-234 3 -1181 30 -1185 34 -4 4 22 521
32 630 4 52 3 57 -15 57 -12 0 -20 -7 -20 -17 1 -74 -34 -660 -40 -666 -4 -4
-55 -5 -115 -1 l-108 7 7 96 c3 53 11 186 16 296 11 233 28 314 95 451 69 142
170 223 331 264 99 26 144 26 144 2 0 -14 40 -30 206 -82 114 -36 209 -71 212
-79 3 -7 -5 -159 -18 -338 -12 -178 -21 -326 -18 -328 2 -2 19 136 37 308 18
172 35 324 38 338 l5 26 201 17 c111 10 205 20 209 22 4 3 8 30 8 60 0 49 2
54 22 54 45 0 156 33 233 70 299 144 481 503 502 993 6 126 12 154 28 127 10
-17 71 -11 87 8 31 35 42 69 42 133 0 46 -5 74 -17 92 -9 15 -17 31 -17 36 0
13 221 344 311 465 l73 99 117 -124 c65 -68 118 -129 119 -136z m-2020 -179
c74 -8 150 -22 168 -31 63 -30 82 -104 57 -224 -19 -95 -59 -181 -105 -224
l-32 -30 6 30 6 30 -15 -32 c-15 -33 -16 -33 -88 -33 -189 0 -411 35 -469 73
-29 20 -35 31 -48 95 -25 127 12 285 77 328 56 36 229 43 443 18z m899 -9
c114 -22 138 -36 147 -82 11 -59 -3 -292 -23 -368 -18 -69 -18 -69 -63 -84
-61 -20 -364 -21 -437 -3 -48 13 -54 17 -63 50 -5 21 -21 51 -35 67 l-26 30
21 -42 c25 -53 27 -82 4 -62 -61 51 -68 210 -17 419 19 78 21 81 70 91 59 12
328 2 422 -16z m452 -130 c36 -19 49 -50 49 -118 0 -62 -26 -121 -55 -125 -12
-2 -38 8 -58 22 l-37 25 0 -52 c0 -93 -13 -247 -20 -247 -4 0 -10 10 -13 22
-10 36 -16 16 -10 -30 4 -30 9 -39 15 -30 15 22 -3 -90 -33 -209 -28 -115 -93
-267 -148 -346 -113 -165 -267 -267 -473 -314 -115 -26 -406 -24 -569 5 -183
33 -303 67 -399 114 -152 74 -268 215 -298 363 -27 131 -65 659 -49 689 8 17
7 17 -21 -2 -67 -48 -110 -16 -119 85 -5 71 17 123 61 138 25 8 31 6 51 -19
12 -15 24 -23 26 -17 3 8 19 7 56 -4 51 -15 52 -16 58 -63 27 -212 68 -362
135 -491 48 -93 132 -197 193 -241 35 -25 47 -41 52 -69 8 -41 50 -123 75
-146 16 -15 18 -13 24 29 8 54 67 147 129 202 l42 39 6 -71 c19 -208 210 -346
402 -290 61 18 119 61 142 107 30 57 29 155 -2 236 -12 30 18 2 48 -45 26 -41
58 -127 73 -195 9 -37 20 -28 36 28 10 37 16 44 29 39 56 -27 125 10 232 123
68 73 139 195 177 308 41 122 82 365 82 488 0 30 6 49 17 58 15 13 16 12 11
-8 -4 -13 -2 -23 3 -23 5 0 9 4 9 9 0 10 28 41 36 41 3 0 18 -7 35 -15z
m-1018 -21 c13 -4 14 -25 10 -122 -7 -144 5 -193 56 -242 41 -40 44 -64 5 -54
-20 5 -32 -2 -64 -35 -35 -36 -44 -41 -85 -41 -39 0 -47 4 -55 24 -12 32 -48
56 -82 56 -40 0 -35 16 20 65 60 54 107 151 123 255 6 41 13 81 15 88 4 13 32
16 57 6z m858 -158 c-24 -226 -76 -414 -152 -543 -39 -67 -159 -192 -208 -217
-57 -30 -75 -17 -89 63 -21 122 -48 179 -122 253 -58 58 -75 69 -138 88 l-72
22 25 30 c14 16 25 36 25 45 0 10 5 13 18 8 9 -4 55 -14 102 -22 159 -28 412
-3 451 46 16 20 41 135 54 253 6 56 7 57 58 86 64 36 63 37 48 -112z m-1761
57 c1 -62 25 -161 46 -184 49 -54 159 -82 384 -98 80 -6 160 -11 178 -11 29 0
32 -3 32 -29 0 -15 9 -40 21 -55 15 -20 17 -27 7 -30 -7 -3 -40 -12 -73 -21
-156 -44 -236 -122 -281 -274 -6 -19 -103 75 -154 149 -100 146 -151 298 -185
548 -4 33 -2 42 10 42 11 0 15 -11 15 -37z m985 -448 c177 -34 259 -126 280
-311 l6 -59 -30 60 c-40 80 -91 139 -145 164 -67 33 -179 37 -306 12 -58 -12
-119 -21 -136 -21 -16 0 -50 -13 -75 -28 -57 -37 -150 -137 -177 -193 l-21
-42 -12 29 c-35 87 -17 177 51 263 90 112 344 169 565 126z m-620 -824 c43
-11 126 -28 183 -37 l104 -17 -5 -50 c-4 -27 -8 -52 -11 -54 -3 -3 -90 23
-195 56 l-191 62 0 35 c0 29 3 34 18 30 9 -3 53 -14 97 -25z m685 -102 l0 -36
-152 -12 c-84 -6 -170 -14 -192 -17 -34 -5 -37 -4 -33 12 3 11 8 35 11 54 l6
35 180 0 180 0 0 -36z"/>
<path d="M2458 3010 c-36 -28 -39 -81 -6 -104 18 -13 43 -14 142 -9 l121 6
100 -46 c98 -45 116 -51 144 -48 20 2 7 52 -25 101 -42 63 -80 81 -207 96
-238 28 -239 28 -269 4z m229 -39 c108 -13 150 -22 170 -37 31 -23 69 -71 62
-79 -3 -2 -48 16 -99 41 l-95 45 -127 -6 -128 -6 0 25 c0 41 15 42 217 17z"/>
<path d="M1885 2980 c-77 -12 -203 -51 -285 -89 l-65 -29 95 5 c66 3 144 -2
255 -16 212 -28 240 -27 270 4 28 27 30 37 15 66 -28 51 -159 78 -285 59z
m187 -40 c41 -12 71 -36 65 -54 -2 -6 -19 -13 -38 -14 -47 -5 -341 30 -332 39
12 12 153 37 213 38 30 0 72 -4 92 -9z"/>
<path d="M1950 945 c-15 -18 -6 -61 15 -69 35 -13 63 23 50 64 -8 24 -47 27
-65 5z m40 -25 c0 -5 -4 -10 -10 -10 -5 0 -10 5 -10 10 0 6 5 10 10 10 6 0 10
-4 10 -10z"/>
<path d="M1940 826 c-28 -35 11 -93 48 -70 35 22 22 84 -18 84 -10 0 -23 -7
-30 -14z"/>
<path d="M1930 670 c-11 -11 -20 -24 -20 -29 0 -16 30 -41 49 -41 38 0 54 45
25 74 -20 21 -30 20 -54 -4z m40 -24 c0 -3 -4 -8 -10 -11 -5 -3 -10 -1 -10 4
0 6 5 11 10 11 6 0 10 -2 10 -4z"/>
<path d="M1942 523 c-22 -8 -34 -41 -22 -63 20 -38 87 -16 78 26 -4 20 -38 43
-56 37z m28 -37 c0 -3 -4 -8 -10 -11 -5 -3 -10 -1 -10 4 0 6 5 11 10 11 6 0
10 -2 10 -4z"/>
<path d="M1926 354 c-20 -20 -20 -27 2 -54 23 -28 59 -20 68 16 12 46 -37 72
-70 38z m39 -24 c3 -5 1 -10 -4 -10 -6 0 -11 5 -11 10 0 6 2 10 4 10 3 0 8 -4
11 -10z"/>
<path d="M1840 2761 c-119 -25 -195 -131 -194 -266 1 -38 9 -90 18 -115 16
-42 16 -45 -1 -58 -15 -11 -10 -12 37 -5 86 13 269 7 322 -10 27 -8 45 -11 42
-6 -3 5 7 24 21 43 61 80 90 217 60 280 -45 94 -194 161 -305 137z m176 -59
c22 -11 55 -37 72 -57 28 -31 32 -43 31 -88 0 -29 -6 -70 -13 -92 l-12 -40 -7
50 c-13 88 -72 163 -144 181 -40 10 -108 -6 -155 -35 -62 -39 -93 -103 -85
-174 3 -29 9 -61 13 -72 5 -13 4 -17 -3 -10 -33 33 -43 154 -18 224 36 103 99
145 210 138 45 -2 85 -11 111 -25z m-139 -112 c17 -34 -3 -64 -46 -68 -25 -3
-33 2 -42 22 -28 60 58 106 88 46z m-22 -115 c0 -30 -39 -27 -43 3 -3 20 0 23
20 20 15 -2 23 -10 23 -23z"/>
<path d="M2582 2717 c-18 -5 -52 -27 -76 -49 -51 -44 -76 -105 -76 -185 0 -61
15 -104 54 -150 25 -29 25 -32 9 -43 -14 -8 -6 -9 32 -3 28 5 122 7 210 6 88
-1 153 2 146 6 -9 6 -10 11 -2 15 20 13 50 82 57 133 3 28 1 75 -6 108 -23
108 -124 176 -259 174 -31 -1 -71 -6 -89 -12z m176 -32 c61 -18 110 -57 128
-102 27 -63 14 -194 -23 -233 -12 -13 -12 -10 -2 18 19 55 7 144 -25 186 -56
74 -174 102 -248 60 -51 -30 -98 -107 -98 -161 0 -24 5 -53 11 -65 6 -11 8
-22 6 -25 -14 -14 -41 67 -41 122 -1 161 127 249 292 200z m-96 -112 c23 -21
23 -45 -1 -67 -26 -23 -52 -17 -70 16 -14 24 -14 28 3 47 23 25 43 27 68 4z
m3 -118 c0 -25 -40 -33 -49 -10 -9 24 2 37 27 33 14 -2 22 -10 22 -23z"/>
<path d="M3318 2531 c-42 -18 -53 -51 -18 -51 11 0 23 -7 26 -15 9 -21 26 -7
19 15 -3 11 -1 29 5 40 15 29 12 30 -32 11z"/>
<path d="M1160 2516 c0 -8 4 -17 9 -20 4 -3 6 -18 3 -33 -4 -23 -2 -26 9 -15
7 6 21 12 30 12 36 0 29 30 -11 50 -33 17 -40 18 -40 6z"/>
<path d="M1343 2250 c0 -30 2 -43 4 -27 2 15 2 39 0 55 -2 15 -4 2 -4 -28z"/>
<path d="M1394 1996 c-3 -19 -1 -43 5 -53 8 -14 10 -8 11 35 0 60 -6 67 -16
18z"/>
<path d="M3113 1885 c-6 -20 -7 -35 -2 -35 5 0 9 1 9 3 0 1 4 17 9 35 13 44
-3 41 -16 -3z"/>
<path d="M1516 1875 c-3 -9 -6 -29 -5 -43 1 -22 3 -19 10 12 10 40 6 60 -5 31z"/>
<path d="M3023 1705 c0 -22 2 -30 4 -17 2 12 2 30 0 40 -3 9 -5 -1 -4 -23z"/>
<path d="M1410 1695 c0 -9 30 -65 35 -65 7 0 -16 60 -26 66 -5 3 -9 2 -9 -1z"/>
<path d="M2863 1550 c4 -14 7 -31 7 -37 0 -7 4 -13 9 -13 6 0 6 12 1 31 -11
38 -26 55 -17 19z"/>
<path d="M1640 1524 c0 -16 5 -36 10 -44 6 -10 7 -2 3 25 -7 49 -13 58 -13 19z"/>
<path d="M2721 1540 c0 -8 6 -24 14 -34 19 -25 19 -9 0 24 -8 14 -14 19 -14
10z"/>
<path d="M1815 1481 c-6 -19 3 -51 14 -51 4 0 5 16 3 35 -5 40 -8 43 -17 16z"/>
<path d="M2510 1436 c0 -15 34 -78 37 -69 4 11 -23 73 -32 73 -3 0 -5 -2 -5
-4z"/>
<path d="M2086 1373 c9 -38 14 -42 14 -10 0 14 -5 29 -10 32 -7 4 -8 -3 -4
-22z"/>
<path d="M2282 1375 c0 -16 2 -22 5 -12 2 9 2 23 0 30 -3 6 -5 -1 -5 -18z"/>
<path d="M2210 2054 c0 -5 6 -29 14 -53 14 -48 32 -41 21 9 -6 26 -35 64 -35
44z"/>
<path d="M2323 2020 c7 -26 14 -37 21 -30 12 12 -3 61 -20 67 -8 3 -9 -7 -1
-37z"/>
<path d="M2043 2035 c-35 -15 -105 -81 -124 -116 -7 -14 15 1 51 34 35 31 78
62 97 69 18 7 33 16 33 20 0 12 -20 9 -57 -7z"/>
<path d="M2390 2042 c0 -4 22 -15 48 -25 27 -9 70 -35 95 -58 57 -49 63 -35 8
20 -42 42 -151 88 -151 63z"/>
<path d="M2139 1996 c-3 -26 -1 -50 3 -52 12 -8 21 63 10 82 -8 14 -11 7 -13
-30z"/>
<path d="M564 3708 c-76 -70 -208 -228 -198 -238 5 -5 63 -52 129 -104 l120
-96 29 33 c16 17 66 74 112 125 46 51 84 101 84 110 0 30 -68 102 -96 102 -20
0 -24 4 -19 19 4 13 -5 30 -28 55 -46 49 -75 47 -133 -6z m64 -101 c8 -9 -2
-25 -38 -63 -44 -46 -51 -50 -67 -38 -17 12 -14 17 32 63 53 55 57 57 73 38z
m82 -90 c0 -19 -82 -96 -96 -90 -22 8 -16 25 27 76 33 38 44 45 55 36 8 -6 14
-16 14 -22z"/>
<path d="M291 3378 c-31 -28 -126 -175 -152 -233 -30 -68 -18 -84 128 -161
l121 -64 32 51 c17 28 30 52 28 54 -2 1 -24 14 -50 29 -27 16 -51 32 -54 38
-3 5 10 34 30 64 l36 54 55 -37 c32 -20 59 -32 63 -27 5 5 20 26 35 46 l27 37
-43 34 c-176 141 -211 157 -256 115z m43 -114 c23 -9 20 -18 -20 -79 -39 -58
-43 -62 -61 -44 -9 9 -2 27 25 70 20 33 38 59 39 59 1 0 8 -3 17 -6z"/>
</g>
</svg>
